# xmcd
#
# Track frame offsets:
#	150
#	14550
#	29782
#	49745
#	67422
#	82835
#	95255
#	113865
#	132967
#	146702
#	158925
#	174375
#	186867
#	204275
#	215595
#	234742
#	252934
#
# Disc length: 3565 seconds
#
# Revision: 2
# Processed by: cddbd v1.5.2PL0 Copyright (c) Steve Scherf et al.
# Submitted via: audiograbber 1.83.01
#
DISCID=fa0deb11
DTITLE=Loretta Holloway - ...Quietly
DYEAR=1996
DGENRE=Soul
TTITLE0=More Than You Know
TTITLE1=A Song for You
TTITLE2=The Way He Makes Me Feel
TTITLE3=Everything Must Change
TTITLE4=Guess Who I Saw Today
TTITLE5=I'm a Fool to Want You
TTITLE6=I Can't Make You Love Me
TTITLE7=I've Never Been to Me
TTITLE8=Can't Help Lovin' Dat Man
TTITLE9=Strange Fruit
TTITLE10=If I Could
TTITLE11=Sophisticated Lady
TTITLE12=At Seventeen
TTITLE13=Angel Eyes
TTITLE14=At Last
TTITLE15=Love Don't Need a Reason
TTITLE16=Ol' Man River
EXTD=
EXTT0=
EXTT1=
EXTT2=
EXTT3=
EXTT4=
EXTT5=
EXTT6=
EXTT7=
EXTT8=
EXTT9=
EXTT10=
EXTT11=
EXTT12=
EXTT13=
EXTT14=
EXTT15=
EXTT16=
PLAYORDER=
